<svg width="48" height="48" xmlns="http://www.w3.org/2000/svg" xmlns:xlink="http://www.w3.org/1999/xlink" xml:space="preserve" overflow="hidden"><defs><clipPath id="clip0"><rect x="272" y="91" width="48" height="48"/></clipPath></defs><g clip-path="url(#clip0)" transform="translate(-272 -91)"><path d="M296 127.5C291 127.5 287 123.5 287 118.5 287 113.5 291 109.5 296 109.5 301 109.5 305 113.5 305 118.5 305 123.5 301 127.5 296 127.5ZM286 111.5 280 111.5 280 107.5 286 107.5 286 111.5ZM314 103.5 304 103.5 301 98.5 291 98.5 288 103.5 278 103.5C276.9 103.5 276 104.4 276 105.5L276 129.5C276 130.6 276.9 131.5 278 131.5L314 131.5C315.1 131.5 316 130.6 316 129.5L316 105.5C316 104.4 315.1 103.5 314 103.5Z" fill="#FFFFFF"/><path d="M296 113.5C293.2 113.5 291 115.7 291 118.5 291 121.3 293.2 123.5 296 123.5 298.8 123.5 301 121.3 301 118.5 301 115.7 298.8 113.5 296 113.5ZM296 125.5C292.1 125.5 289 122.4 289 118.5 289 114.6 292.1 111.5 296 111.5 299.9 111.5 303 114.6 303 118.5 303 122.4 299.9 125.5 296 125.5Z" fill="#FFFFFF"/></g></svg>